<svg width="133" height="22" viewBox="0 0 133 22" fill="none" xmlns="http://www.w3.org/2000/svg">
<path d="M0.67 22L10.39 0.849999H14.26L24.1 22H19.36L16.81 16.12L18.64 17.41H6.07L7.93 16.12L5.38 22H0.67ZM12.31 5.77L8.44 14.95L7.63 13.81H17.08L16.39 14.95L12.43 5.77H12.31ZM33.9787 22L24.4687 0.849999H29.5087L36.7387 17.77H35.2687L42.4987 0.849999H47.3587L37.8487 22H33.9787ZM52.1092 22V0.849999H56.7892V18.07H66.3292V22H52.1092ZM72.1893 22V0.849999H86.8893V4.48H76.6593V9.43H86.1693V13.09H76.6593V18.37H86.8893V22H72.1893ZM93.1483 22V0.849999H107.848V4.48H97.6183V9.43H107.128V13.09H97.6183V18.37H107.848V22H93.1483ZM114.107 22V0.849999H117.587L129.077 15.46H128.267V0.849999H132.617V22H129.137L117.677 7.39H118.457V22H114.107Z" fill="#FFBD59"/>
</svg>
