<svg xmlns="http://www.w3.org/2000/svg" xmlns:xlink="http://www.w3.org/1999/xlink" width="400" zoomAndPan="magnify" viewBox="0 0 300 139.500001" height="186" preserveAspectRatio="xMidYMid meet" version="1.0"><defs><g/><clipPath id="7a7283490e"><path d="M 80.238281 0.65625 L 143 0.65625 L 143 102.289062 L 80.238281 102.289062 Z M 80.238281 0.65625 " clip-rule="nonzero"/></clipPath><clipPath id="389b3cfeb2"><path d="M 109 0.65625 L 219.988281 0.65625 L 219.988281 102.289062 L 109 102.289062 Z M 109 0.65625 " clip-rule="nonzero"/></clipPath><clipPath id="da7cc332a9"><path d="M 139 48 L 191 48 L 191 102.289062 L 139 102.289062 Z M 139 48 " clip-rule="nonzero"/></clipPath></defs><g clip-path="url(#7a7283490e)"><path fill="#ffbd59" d="M 127.78125 0.65625 L 80.238281 102.289062 L 95.09375 102.289062 L 142.636719 0.65625 Z M 127.78125 0.65625 " fill-opacity="1" fill-rule="nonzero"/></g><g clip-path="url(#389b3cfeb2)"><path fill="#ffbd59" d="M 172.449219 0.65625 L 157.589844 0.65625 L 109.953125 102.289062 L 124.90625 102.289062 L 165.019531 16.542969 L 205.132812 102.289062 L 219.988281 102.289062 Z M 172.449219 0.65625 " fill-opacity="1" fill-rule="nonzero"/></g><g clip-path="url(#da7cc332a9)"><path fill="#ffbd59" d="M 157.492188 64.300781 L 169.082031 88.871094 L 146.003906 88.871094 L 139.761719 102.289062 L 190.175781 102.289062 L 165.019531 48.316406 Z M 157.492188 64.300781 " fill-opacity="1" fill-rule="nonzero"/></g><g fill="#f5faf4" fill-opacity="1"><g transform="translate(49.462107, 133.996229)"><g><path d="M 0.109375 0.046875 C 0.00390625 0.046875 -0.0703125 0.0078125 -0.125 -0.0625 C -0.1875 -0.132812 -0.21875 -0.226562 -0.21875 -0.34375 C -0.207031 -0.519531 -0.171875 -0.625 -0.109375 -0.65625 C -0.046875 -0.695312 0.0234375 -0.71875 0.109375 -0.71875 C 0.191406 -0.71875 0.242188 -0.71875 0.265625 -0.71875 C 0.628906 -0.71875 0.894531 -0.8125 1.0625 -1 C 1.226562 -1.1875 1.359375 -1.394531 1.453125 -1.625 C 1.554688 -1.851562 1.628906 -2.007812 1.671875 -2.09375 L 4.8125 -9.53125 C 4.882812 -9.707031 4.921875 -9.847656 4.921875 -9.953125 C 4.921875 -10.171875 4.832031 -10.328125 4.65625 -10.421875 C 4.488281 -10.515625 4.257812 -10.59375 3.96875 -10.65625 C 3.757812 -10.6875 3.628906 -10.71875 3.578125 -10.75 C 3.535156 -10.789062 3.515625 -10.894531 3.515625 -11.0625 C 3.515625 -11.207031 3.550781 -11.300781 3.625 -11.34375 C 3.707031 -11.394531 3.832031 -11.421875 4 -11.421875 C 4.59375 -11.421875 5.066406 -11.375 5.421875 -11.28125 C 5.773438 -11.195312 6.082031 -11.019531 6.34375 -10.75 C 6.613281 -10.476562 6.859375 -10.070312 7.078125 -9.53125 L 10.09375 -2.09375 C 10.28125 -1.644531 10.457031 -1.304688 10.625 -1.078125 C 10.789062 -0.847656 11.039062 -0.726562 11.375 -0.71875 L 11.484375 -0.71875 C 11.597656 -0.71875 11.675781 -0.695312 11.71875 -0.65625 C 11.769531 -0.613281 11.804688 -0.507812 11.828125 -0.34375 C 11.828125 -0.226562 11.796875 -0.132812 11.734375 -0.0625 C 11.679688 0.0078125 11.601562 0.046875 11.5 0.046875 C 10.726562 0.015625 10.070312 0 9.53125 0 C 8.8125 0 8.066406 0.015625 7.296875 0.046875 C 7.191406 0.046875 7.113281 0.0078125 7.0625 -0.0625 C 7.007812 -0.132812 6.984375 -0.226562 6.984375 -0.34375 C 6.992188 -0.507812 7.019531 -0.613281 7.0625 -0.65625 C 7.113281 -0.695312 7.195312 -0.71875 7.3125 -0.71875 C 7.71875 -0.71875 8.003906 -0.753906 8.171875 -0.828125 C 8.347656 -0.910156 8.4375 -1.050781 8.4375 -1.25 C 8.4375 -1.40625 8.363281 -1.6875 8.21875 -2.09375 L 7.609375 -3.59375 L 3.171875 -3.59375 C 2.867188 -2.84375 2.695312 -2.40625 2.65625 -2.28125 C 2.613281 -2.164062 2.59375 -2.101562 2.59375 -2.09375 C 2.457031 -1.644531 2.390625 -1.351562 2.390625 -1.21875 C 2.390625 -1.019531 2.476562 -0.882812 2.65625 -0.8125 C 2.832031 -0.75 3.171875 -0.71875 3.671875 -0.71875 L 3.78125 -0.71875 C 3.90625 -0.71875 3.988281 -0.695312 4.03125 -0.65625 C 4.082031 -0.613281 4.113281 -0.507812 4.125 -0.34375 C 4.125 -0.226562 4.097656 -0.132812 4.046875 -0.0625 C 3.992188 0.0078125 3.910156 0.046875 3.796875 0.046875 C 3.035156 0.015625 2.382812 0 1.84375 0 C 1.46875 0 0.890625 0.015625 0.109375 0.046875 Z M 3.515625 -4.359375 L 7.28125 -4.359375 L 5.46875 -8.96875 L 5.421875 -8.96875 Z M 3.515625 -4.359375 "/></g></g></g><g fill="#f5faf4" fill-opacity="1"><g transform="translate(65.424873, 133.996229)"><g><path d="M 5.453125 0.171875 C 5.097656 -0.804688 4.53125 -2.363281 3.75 -4.5 C 2.96875 -6.644531 2.398438 -8.191406 2.046875 -9.140625 C 1.835938 -9.660156 1.640625 -10.019531 1.453125 -10.21875 C 1.265625 -10.425781 0.984375 -10.566406 0.609375 -10.640625 C 0.554688 -10.648438 0.484375 -10.660156 0.390625 -10.671875 C 0.296875 -10.691406 0.234375 -10.726562 0.203125 -10.78125 C 0.171875 -10.84375 0.15625 -10.929688 0.15625 -11.046875 C 0.15625 -11.191406 0.191406 -11.285156 0.265625 -11.328125 C 0.347656 -11.378906 0.472656 -11.40625 0.640625 -11.40625 C 1.535156 -11.40625 2.21875 -11.265625 2.6875 -10.984375 C 3.15625 -10.710938 3.523438 -10.226562 3.796875 -9.53125 L 6.40625 -2.53125 L 6.453125 -2.53125 L 8.9375 -9.71875 C 9.007812 -9.925781 9.046875 -10.082031 9.046875 -10.1875 C 9.046875 -10.351562 8.972656 -10.460938 8.828125 -10.515625 C 8.691406 -10.566406 8.460938 -10.59375 8.140625 -10.59375 L 8.03125 -10.59375 C 7.914062 -10.59375 7.832031 -10.613281 7.78125 -10.65625 C 7.738281 -10.707031 7.707031 -10.816406 7.6875 -10.984375 C 7.6875 -11.085938 7.710938 -11.175781 7.765625 -11.25 C 7.828125 -11.332031 7.90625 -11.375 8 -11.375 C 8.78125 -11.332031 9.429688 -11.3125 9.953125 -11.3125 C 10.179688 -11.3125 10.617188 -11.328125 11.265625 -11.359375 L 11.640625 -11.375 C 11.742188 -11.375 11.820312 -11.332031 11.875 -11.25 C 11.9375 -11.175781 11.96875 -11.085938 11.96875 -10.984375 C 11.957031 -10.816406 11.925781 -10.707031 11.875 -10.65625 C 11.820312 -10.613281 11.738281 -10.59375 11.625 -10.59375 C 11.113281 -10.59375 10.722656 -10.507812 10.453125 -10.34375 C 10.179688 -10.175781 9.953125 -9.851562 9.765625 -9.375 C 9.398438 -8.394531 8.816406 -6.804688 8.015625 -4.609375 C 7.222656 -2.421875 6.648438 -0.828125 6.296875 0.171875 Z M 5.453125 0.171875 "/></g></g></g><g fill="#f5faf4" fill-opacity="1"><g transform="translate(81.297964, 133.996229)"><g><path d="M 1.078125 0.046875 C 0.984375 0.046875 0.90625 0.0078125 0.84375 -0.0625 C 0.789062 -0.132812 0.765625 -0.226562 0.765625 -0.34375 C 0.785156 -0.519531 0.820312 -0.625 0.875 -0.65625 C 0.9375 -0.695312 1.050781 -0.71875 1.21875 -0.71875 C 1.5625 -0.71875 1.816406 -0.78125 1.984375 -0.90625 C 2.148438 -1.03125 2.253906 -1.1875 2.296875 -1.375 C 2.347656 -1.5625 2.378906 -1.800781 2.390625 -2.09375 L 2.390625 -9.21875 C 2.378906 -9.519531 2.347656 -9.757812 2.296875 -9.9375 C 2.253906 -10.125 2.148438 -10.28125 1.984375 -10.40625 C 1.816406 -10.53125 1.5625 -10.59375 1.21875 -10.59375 L 1.109375 -10.59375 C 0.992188 -10.59375 0.910156 -10.613281 0.859375 -10.65625 C 0.816406 -10.707031 0.785156 -10.816406 0.765625 -10.984375 C 0.765625 -11.085938 0.789062 -11.175781 0.84375 -11.25 C 0.90625 -11.332031 0.984375 -11.375 1.078125 -11.375 C 1.867188 -11.332031 2.578125 -11.3125 3.203125 -11.3125 C 3.921875 -11.3125 4.671875 -11.332031 5.453125 -11.375 C 5.554688 -11.375 5.632812 -11.332031 5.6875 -11.25 C 5.75 -11.175781 5.78125 -11.085938 5.78125 -10.984375 C 5.769531 -10.796875 5.726562 -10.679688 5.65625 -10.640625 C 5.59375 -10.609375 5.484375 -10.59375 5.328125 -10.59375 C 4.984375 -10.59375 4.726562 -10.53125 4.5625 -10.40625 C 4.394531 -10.28125 4.285156 -10.125 4.234375 -9.9375 C 4.191406 -9.757812 4.164062 -9.519531 4.15625 -9.21875 L 4.15625 -1.828125 C 4.1875 -1.578125 4.21875 -1.382812 4.25 -1.25 C 4.289062 -1.113281 4.398438 -0.988281 4.578125 -0.875 C 4.753906 -0.757812 5.035156 -0.707031 5.421875 -0.71875 L 7.03125 -0.71875 C 7.445312 -0.726562 7.765625 -0.796875 7.984375 -0.921875 C 8.203125 -1.046875 8.375 -1.238281 8.5 -1.5 C 8.625 -1.769531 8.773438 -2.203125 8.953125 -2.796875 C 9.035156 -3.015625 9.238281 -3.097656 9.5625 -3.046875 C 9.664062 -3.023438 9.765625 -2.976562 9.859375 -2.90625 C 9.960938 -2.832031 10.003906 -2.742188 9.984375 -2.640625 L 9.625 -0.375 C 9.59375 -0.21875 9.539062 -0.113281 9.46875 -0.0625 C 9.394531 -0.0195312 9.273438 0 9.109375 0 L 3.234375 0 C 2.585938 0 1.867188 0.015625 1.078125 0.046875 Z M 1.078125 0.046875 "/></g></g></g><g fill="#f5faf4" fill-opacity="1"><g transform="translate(95.790011, 133.996229)"><g><path d="M 1.078125 0.046875 C 0.984375 0.046875 0.90625 0.0078125 0.84375 -0.0625 C 0.789062 -0.132812 0.765625 -0.226562 0.765625 -0.34375 C 0.785156 -0.519531 0.820312 -0.625 0.875 -0.65625 C 0.9375 -0.695312 1.050781 -0.71875 1.21875 -0.71875 C 1.5625 -0.71875 1.816406 -0.78125 1.984375 -0.90625 C 2.148438 -1.03125 2.253906 -1.1875 2.296875 -1.375 C 2.347656 -1.5625 2.378906 -1.800781 2.390625 -2.09375 L 2.390625 -9.21875 C 2.378906 -9.519531 2.347656 -9.757812 2.296875 -9.9375 C 2.253906 -10.125 2.148438 -10.28125 1.984375 -10.40625 C 1.816406 -10.53125 1.5625 -10.59375 1.21875 -10.59375 L 1.109375 -10.59375 C 0.992188 -10.59375 0.910156 -10.613281 0.859375 -10.65625 C 0.816406 -10.707031 0.785156 -10.816406 0.765625 -10.984375 C 0.765625 -11.085938 0.789062 -11.175781 0.84375 -11.25 C 0.90625 -11.332031 0.984375 -11.375 1.078125 -11.375 C 1.867188 -11.332031 2.578125 -11.3125 3.203125 -11.3125 L 8.84375 -11.3125 C 9.15625 -11.3125 9.3125 -11.171875 9.3125 -10.890625 L 9.359375 -8.375 C 9.359375 -8.269531 9.304688 -8.179688 9.203125 -8.109375 C 9.097656 -8.046875 8.988281 -8.015625 8.875 -8.015625 C 8.726562 -8.015625 8.601562 -8.039062 8.5 -8.09375 C 8.394531 -8.144531 8.335938 -8.226562 8.328125 -8.34375 C 8.222656 -8.925781 8.113281 -9.367188 8 -9.671875 C 7.894531 -9.984375 7.726562 -10.210938 7.5 -10.359375 C 7.28125 -10.503906 6.96875 -10.582031 6.5625 -10.59375 L 4.15625 -10.59375 L 4.15625 -6.046875 L 7.40625 -6.046875 C 7.488281 -6.035156 7.550781 -5.988281 7.59375 -5.90625 C 7.644531 -5.832031 7.671875 -5.738281 7.671875 -5.625 C 7.671875 -5.53125 7.644531 -5.445312 7.59375 -5.375 C 7.550781 -5.3125 7.488281 -5.28125 7.40625 -5.28125 L 4.15625 -5.28125 L 4.15625 -1.890625 C 4.1875 -1.628906 4.21875 -1.425781 4.25 -1.28125 C 4.289062 -1.132812 4.398438 -1 4.578125 -0.875 C 4.753906 -0.757812 5.035156 -0.707031 5.421875 -0.71875 L 7.0625 -0.71875 C 7.476562 -0.726562 7.796875 -0.796875 8.015625 -0.921875 C 8.234375 -1.046875 8.40625 -1.238281 8.53125 -1.5 C 8.65625 -1.769531 8.804688 -2.203125 8.984375 -2.796875 C 9.066406 -3.015625 9.269531 -3.097656 9.59375 -3.046875 C 9.71875 -3.023438 9.820312 -2.976562 9.90625 -2.90625 C 10 -2.832031 10.039062 -2.742188 10.03125 -2.640625 L 9.671875 -0.375 C 9.628906 -0.21875 9.570312 -0.113281 9.5 -0.0625 C 9.4375 -0.0195312 9.316406 0 9.140625 0 L 3.234375 0 C 2.585938 0 1.867188 0.015625 1.078125 0.046875 Z M 1.078125 0.046875 "/></g></g></g><g fill="#f5faf4" fill-opacity="1"><g transform="translate(110.694569, 133.996229)"><g><path d="M 1.078125 0.046875 C 0.984375 0.046875 0.90625 0.0078125 0.84375 -0.0625 C 0.789062 -0.132812 0.765625 -0.226562 0.765625 -0.34375 C 0.785156 -0.519531 0.820312 -0.625 0.875 -0.65625 C 0.9375 -0.695312 1.050781 -0.71875 1.21875 -0.71875 C 1.5625 -0.71875 1.816406 -0.78125 1.984375 -0.90625 C 2.148438 -1.03125 2.253906 -1.1875 2.296875 -1.375 C 2.347656 -1.5625 2.378906 -1.800781 2.390625 -2.09375 L 2.390625 -9.21875 C 2.378906 -9.519531 2.347656 -9.757812 2.296875 -9.9375 C 2.253906 -10.125 2.148438 -10.28125 1.984375 -10.40625 C 1.816406 -10.53125 1.5625 -10.59375 1.21875 -10.59375 L 1.109375 -10.59375 C 0.992188 -10.59375 0.910156 -10.613281 0.859375 -10.65625 C 0.816406 -10.707031 0.785156 -10.816406 0.765625 -10.984375 C 0.765625 -11.085938 0.789062 -11.175781 0.84375 -11.25 C 0.90625 -11.332031 0.984375 -11.375 1.078125 -11.375 C 1.867188 -11.332031 2.578125 -11.3125 3.203125 -11.3125 L 8.84375 -11.3125 C 9.15625 -11.3125 9.3125 -11.171875 9.3125 -10.890625 L 9.359375 -8.375 C 9.359375 -8.269531 9.304688 -8.179688 9.203125 -8.109375 C 9.097656 -8.046875 8.988281 -8.015625 8.875 -8.015625 C 8.726562 -8.015625 8.601562 -8.039062 8.5 -8.09375 C 8.394531 -8.144531 8.335938 -8.226562 8.328125 -8.34375 C 8.222656 -8.925781 8.113281 -9.367188 8 -9.671875 C 7.894531 -9.984375 7.726562 -10.210938 7.5 -10.359375 C 7.28125 -10.503906 6.96875 -10.582031 6.5625 -10.59375 L 4.15625 -10.59375 L 4.15625 -6.046875 L 7.40625 -6.046875 C 7.488281 -6.035156 7.550781 -5.988281 7.59375 -5.90625 C 7.644531 -5.832031 7.671875 -5.738281 7.671875 -5.625 C 7.671875 -5.53125 7.644531 -5.445312 7.59375 -5.375 C 7.550781 -5.3125 7.488281 -5.28125 7.40625 -5.28125 L 4.15625 -5.28125 L 4.15625 -1.890625 C 4.1875 -1.628906 4.21875 -1.425781 4.25 -1.28125 C 4.289062 -1.132812 4.398438 -1 4.578125 -0.875 C 4.753906 -0.757812 5.035156 -0.707031 5.421875 -0.71875 L 7.0625 -0.71875 C 7.476562 -0.726562 7.796875 -0.796875 8.015625 -0.921875 C 8.234375 -1.046875 8.40625 -1.238281 8.53125 -1.5 C 8.65625 -1.769531 8.804688 -2.203125 8.984375 -2.796875 C 9.066406 -3.015625 9.269531 -3.097656 9.59375 -3.046875 C 9.71875 -3.023438 9.820312 -2.976562 9.90625 -2.90625 C 10 -2.832031 10.039062 -2.742188 10.03125 -2.640625 L 9.671875 -0.375 C 9.628906 -0.21875 9.570312 -0.113281 9.5 -0.0625 C 9.4375 -0.0195312 9.316406 0 9.140625 0 L 3.234375 0 C 2.585938 0 1.867188 0.015625 1.078125 0.046875 Z M 1.078125 0.046875 "/></g></g></g><g fill="#f5faf4" fill-opacity="1"><g transform="translate(125.599125, 133.996229)"><g><path d="M 1.109375 0.046875 C 1.003906 0.046875 0.925781 0.0078125 0.875 -0.0625 C 0.820312 -0.132812 0.796875 -0.226562 0.796875 -0.34375 C 0.804688 -0.519531 0.835938 -0.625 0.890625 -0.65625 C 0.953125 -0.695312 1.066406 -0.71875 1.234375 -0.71875 C 1.585938 -0.71875 1.84375 -0.78125 2 -0.90625 C 2.15625 -1.03125 2.25 -1.175781 2.28125 -1.34375 C 2.320312 -1.519531 2.351562 -1.769531 2.375 -2.09375 L 2.40625 -9.21875 C 2.40625 -9.582031 2.363281 -9.851562 2.28125 -10.03125 C 2.207031 -10.21875 2.085938 -10.351562 1.921875 -10.4375 C 1.753906 -10.519531 1.515625 -10.59375 1.203125 -10.65625 C 0.992188 -10.6875 0.863281 -10.71875 0.8125 -10.75 C 0.769531 -10.789062 0.75 -10.894531 0.75 -11.0625 C 0.75 -11.207031 0.785156 -11.300781 0.859375 -11.34375 C 0.941406 -11.394531 1.066406 -11.421875 1.234375 -11.421875 C 1.972656 -11.421875 2.554688 -11.367188 2.984375 -11.265625 C 3.421875 -11.171875 3.800781 -10.988281 4.125 -10.71875 C 4.457031 -10.457031 4.820312 -10.0625 5.21875 -9.53125 L 10.140625 -3.0625 L 10.1875 -3.0625 L 10.15625 -9.21875 C 10.144531 -9.539062 10.117188 -9.785156 10.078125 -9.953125 C 10.046875 -10.128906 9.945312 -10.28125 9.78125 -10.40625 C 9.625 -10.53125 9.367188 -10.59375 9.015625 -10.59375 L 8.921875 -10.59375 C 8.796875 -10.59375 8.707031 -10.613281 8.65625 -10.65625 C 8.601562 -10.707031 8.570312 -10.816406 8.5625 -10.984375 C 8.5625 -11.085938 8.585938 -11.175781 8.640625 -11.25 C 8.703125 -11.332031 8.78125 -11.375 8.875 -11.375 C 9.644531 -11.332031 10.21875 -11.3125 10.59375 -11.3125 C 10.820312 -11.3125 11.257812 -11.328125 11.90625 -11.359375 L 12.28125 -11.375 C 12.394531 -11.375 12.476562 -11.332031 12.53125 -11.25 C 12.582031 -11.175781 12.609375 -11.085938 12.609375 -10.984375 C 12.597656 -10.796875 12.5625 -10.679688 12.5 -10.640625 C 12.4375 -10.609375 12.320312 -10.59375 12.15625 -10.59375 C 11.8125 -10.59375 11.554688 -10.53125 11.390625 -10.40625 C 11.234375 -10.28125 11.132812 -10.128906 11.09375 -9.953125 C 11.0625 -9.785156 11.039062 -9.539062 11.03125 -9.21875 L 11 -0.171875 C 10.988281 -0.0234375 10.835938 0.046875 10.546875 0.046875 C 10.316406 0.046875 10.144531 -0.0234375 10.03125 -0.171875 L 3.265625 -9.21875 L 3.203125 -9.21875 L 3.25 -2.09375 C 3.257812 -1.769531 3.28125 -1.519531 3.3125 -1.34375 C 3.351562 -1.175781 3.453125 -1.03125 3.609375 -0.90625 C 3.773438 -0.78125 4.03125 -0.71875 4.375 -0.71875 L 4.484375 -0.71875 C 4.597656 -0.71875 4.679688 -0.695312 4.734375 -0.65625 C 4.796875 -0.613281 4.832031 -0.507812 4.84375 -0.34375 C 4.84375 -0.226562 4.816406 -0.132812 4.765625 -0.0625 C 4.710938 0.0078125 4.628906 0.046875 4.515625 0.046875 C 3.753906 0.015625 3.175781 0 2.78125 0 C 2.539062 0 2.125 0.0078125 1.53125 0.03125 Z M 1.109375 0.046875 "/></g></g></g><g fill="#f5faf4" fill-opacity="1"><g transform="translate(143.068481, 133.996229)"><g/></g></g><g fill="#f5faf4" fill-opacity="1"><g transform="translate(151.318915, 133.996229)"><g><path d="M 1.078125 0.046875 C 0.984375 0.046875 0.90625 0.0078125 0.84375 -0.0625 C 0.789062 -0.132812 0.765625 -0.226562 0.765625 -0.34375 C 0.785156 -0.519531 0.820312 -0.625 0.875 -0.65625 C 0.9375 -0.695312 1.050781 -0.71875 1.21875 -0.71875 C 1.5625 -0.71875 1.816406 -0.78125 1.984375 -0.90625 C 2.148438 -1.03125 2.253906 -1.1875 2.296875 -1.375 C 2.347656 -1.5625 2.378906 -1.800781 2.390625 -2.09375 L 2.390625 -9.21875 C 2.378906 -9.519531 2.347656 -9.757812 2.296875 -9.9375 C 2.253906 -10.125 2.148438 -10.28125 1.984375 -10.40625 C 1.816406 -10.53125 1.5625 -10.59375 1.21875 -10.59375 L 1.109375 -10.59375 C 0.992188 -10.59375 0.910156 -10.613281 0.859375 -10.65625 C 0.816406 -10.707031 0.785156 -10.816406 0.765625 -10.984375 C 0.765625 -11.085938 0.789062 -11.175781 0.84375 -11.25 C 0.90625 -11.332031 0.984375 -11.375 1.078125 -11.375 C 1.867188 -11.332031 2.578125 -11.3125 3.203125 -11.3125 C 3.921875 -11.3125 4.671875 -11.332031 5.453125 -11.375 C 5.554688 -11.375 5.632812 -11.332031 5.6875 -11.25 C 5.75 -11.175781 5.78125 -11.085938 5.78125 -10.984375 C 5.769531 -10.796875 5.726562 -10.679688 5.65625 -10.640625 C 5.59375 -10.609375 5.484375 -10.59375 5.328125 -10.59375 C 4.984375 -10.59375 4.726562 -10.53125 4.5625 -10.40625 C 4.394531 -10.28125 4.285156 -10.125 4.234375 -9.9375 C 4.191406 -9.757812 4.164062 -9.519531 4.15625 -9.21875 L 4.15625 -1.828125 C 4.1875 -1.578125 4.21875 -1.382812 4.25 -1.25 C 4.289062 -1.113281 4.398438 -0.988281 4.578125 -0.875 C 4.753906 -0.757812 5.035156 -0.707031 5.421875 -0.71875 L 7.03125 -0.71875 C 7.445312 -0.726562 7.765625 -0.796875 7.984375 -0.921875 C 8.203125 -1.046875 8.375 -1.238281 8.5 -1.5 C 8.625 -1.769531 8.773438 -2.203125 8.953125 -2.796875 C 9.035156 -3.015625 9.238281 -3.097656 9.5625 -3.046875 C 9.664062 -3.023438 9.765625 -2.976562 9.859375 -2.90625 C 9.960938 -2.832031 10.003906 -2.742188 9.984375 -2.640625 L 9.625 -0.375 C 9.59375 -0.21875 9.539062 -0.113281 9.46875 -0.0625 C 9.394531 -0.0195312 9.273438 0 9.109375 0 L 3.234375 0 C 2.585938 0 1.867188 0.015625 1.078125 0.046875 Z M 1.078125 0.046875 "/></g></g></g><g fill="#f5faf4" fill-opacity="1"><g transform="translate(165.810959, 133.996229)"><g><path d="M 1.078125 0.046875 C 0.972656 0.046875 0.890625 0.0078125 0.828125 -0.0625 C 0.773438 -0.132812 0.75 -0.226562 0.75 -0.34375 C 0.757812 -0.519531 0.796875 -0.625 0.859375 -0.65625 C 0.929688 -0.695312 1.046875 -0.71875 1.203125 -0.71875 C 1.546875 -0.71875 1.800781 -0.78125 1.96875 -0.90625 C 2.132812 -1.03125 2.242188 -1.179688 2.296875 -1.359375 C 2.347656 -1.535156 2.378906 -1.78125 2.390625 -2.09375 L 2.390625 -9.21875 C 2.378906 -9.53125 2.347656 -9.773438 2.296875 -9.953125 C 2.242188 -10.128906 2.132812 -10.28125 1.96875 -10.40625 C 1.800781 -10.53125 1.546875 -10.59375 1.203125 -10.59375 L 1.09375 -10.59375 C 0.988281 -10.59375 0.90625 -10.613281 0.84375 -10.65625 C 0.789062 -10.707031 0.757812 -10.816406 0.75 -10.984375 C 0.75 -11.085938 0.773438 -11.175781 0.828125 -11.25 C 0.890625 -11.332031 0.972656 -11.375 1.078125 -11.375 C 1.847656 -11.332031 2.554688 -11.3125 3.203125 -11.3125 C 3.921875 -11.3125 4.671875 -11.332031 5.453125 -11.375 C 5.554688 -11.375 5.632812 -11.332031 5.6875 -11.25 C 5.75 -11.175781 5.78125 -11.085938 5.78125 -10.984375 C 5.769531 -10.796875 5.726562 -10.679688 5.65625 -10.640625 C 5.59375 -10.609375 5.476562 -10.59375 5.3125 -10.59375 C 4.96875 -10.59375 4.707031 -10.53125 4.53125 -10.40625 C 4.363281 -10.28125 4.257812 -10.125 4.21875 -9.9375 C 4.175781 -9.757812 4.148438 -9.519531 4.140625 -9.21875 L 4.140625 -2.09375 C 4.148438 -1.800781 4.175781 -1.5625 4.21875 -1.375 C 4.257812 -1.1875 4.363281 -1.03125 4.53125 -0.90625 C 4.707031 -0.78125 4.96875 -0.71875 5.3125 -0.71875 L 5.421875 -0.71875 C 5.535156 -0.71875 5.617188 -0.695312 5.671875 -0.65625 C 5.734375 -0.613281 5.769531 -0.507812 5.78125 -0.34375 C 5.78125 -0.226562 5.75 -0.132812 5.6875 -0.0625 C 5.632812 0.0078125 5.554688 0.046875 5.453125 0.046875 C 4.691406 0.015625 3.953125 0 3.234375 0 C 2.566406 0 1.847656 0.015625 1.078125 0.046875 Z M 1.078125 0.046875 "/></g></g></g><g fill="#f5faf4" fill-opacity="1"><g transform="translate(176.59032, 133.996229)"><g><path d="M 7.671875 0.09375 C 7.492188 0.09375 7.367188 0.03125 7.296875 -0.09375 L 3.265625 -9.21875 L 3.203125 -9.21875 L 3.25 -2.09375 C 3.257812 -1.769531 3.28125 -1.519531 3.3125 -1.34375 C 3.351562 -1.175781 3.453125 -1.03125 3.609375 -0.90625 C 3.773438 -0.78125 4.03125 -0.71875 4.375 -0.71875 L 4.484375 -0.71875 C 4.597656 -0.71875 4.679688 -0.695312 4.734375 -0.65625 C 4.796875 -0.613281 4.832031 -0.507812 4.84375 -0.34375 C 4.84375 -0.226562 4.816406 -0.132812 4.765625 -0.0625 C 4.710938 0.0078125 4.628906 0.046875 4.515625 0.046875 L 4.078125 0.03125 C 3.523438 0.0078125 3.128906 0 2.890625 0 C 2.484375 0 1.890625 0.015625 1.109375 0.046875 C 1.003906 0.046875 0.925781 0.0078125 0.875 -0.0625 C 0.820312 -0.132812 0.796875 -0.226562 0.796875 -0.34375 C 0.804688 -0.519531 0.835938 -0.625 0.890625 -0.65625 C 0.953125 -0.695312 1.066406 -0.71875 1.234375 -0.71875 C 1.585938 -0.71875 1.84375 -0.78125 2 -0.90625 C 2.15625 -1.03125 2.25 -1.175781 2.28125 -1.34375 C 2.320312 -1.519531 2.351562 -1.769531 2.375 -2.09375 L 2.40625 -9.21875 C 2.40625 -9.59375 2.363281 -9.867188 2.28125 -10.046875 C 2.195312 -10.234375 2.070312 -10.363281 1.90625 -10.4375 C 1.75 -10.519531 1.515625 -10.59375 1.203125 -10.65625 C 1.148438 -10.664062 1.078125 -10.679688 0.984375 -10.703125 C 0.890625 -10.722656 0.828125 -10.757812 0.796875 -10.8125 C 0.765625 -10.863281 0.75 -10.945312 0.75 -11.0625 C 0.75 -11.207031 0.785156 -11.300781 0.859375 -11.34375 C 0.941406 -11.394531 1.066406 -11.421875 1.234375 -11.421875 C 1.941406 -11.421875 2.519531 -11.375 2.96875 -11.28125 C 3.425781 -11.195312 3.828125 -11.015625 4.171875 -10.734375 C 4.515625 -10.460938 4.796875 -10.0625 5.015625 -9.53125 L 8.109375 -2.59375 L 8.15625 -2.59375 L 11.6875 -11.3125 L 12.71875 -11.3125 C 13.375 -11.3125 14.085938 -11.332031 14.859375 -11.375 C 14.960938 -11.375 15.039062 -11.332031 15.09375 -11.25 C 15.144531 -11.175781 15.171875 -11.085938 15.171875 -10.984375 C 15.160156 -10.796875 15.117188 -10.679688 15.046875 -10.640625 C 14.984375 -10.609375 14.878906 -10.59375 14.734375 -10.59375 C 14.378906 -10.59375 14.117188 -10.53125 13.953125 -10.40625 C 13.785156 -10.28125 13.679688 -10.125 13.640625 -9.9375 C 13.597656 -9.757812 13.570312 -9.519531 13.5625 -9.21875 L 13.5625 -2.09375 C 13.570312 -1.800781 13.597656 -1.5625 13.640625 -1.375 C 13.679688 -1.1875 13.785156 -1.03125 13.953125 -0.90625 C 14.117188 -0.78125 14.378906 -0.71875 14.734375 -0.71875 L 14.828125 -0.71875 C 14.941406 -0.71875 15.023438 -0.695312 15.078125 -0.65625 C 15.128906 -0.613281 15.160156 -0.507812 15.171875 -0.34375 C 15.171875 -0.226562 15.144531 -0.132812 15.09375 -0.0625 C 15.039062 0.0078125 14.960938 0.046875 14.859375 0.046875 C 14.085938 0.015625 13.367188 0 12.703125 0 C 12.003906 0 11.269531 0.015625 10.5 0.046875 C 10.382812 0.046875 10.300781 0.0078125 10.25 -0.0625 C 10.195312 -0.132812 10.171875 -0.226562 10.171875 -0.34375 C 10.179688 -0.519531 10.21875 -0.625 10.28125 -0.65625 C 10.34375 -0.695312 10.457031 -0.71875 10.625 -0.71875 C 10.96875 -0.71875 11.222656 -0.78125 11.390625 -0.90625 C 11.554688 -1.03125 11.660156 -1.1875 11.703125 -1.375 C 11.742188 -1.5625 11.769531 -1.800781 11.78125 -2.09375 L 11.78125 -9.21875 L 11.734375 -9.21875 L 8.03125 -0.09375 C 7.988281 0.03125 7.867188 0.09375 7.671875 0.09375 Z M 7.671875 0.09375 "/></g></g></g><g fill="#f5faf4" fill-opacity="1"><g transform="translate(196.785901, 133.996229)"><g><path d="M 1.078125 0.046875 C 0.972656 0.046875 0.890625 0.0078125 0.828125 -0.0625 C 0.773438 -0.132812 0.75 -0.226562 0.75 -0.34375 C 0.757812 -0.519531 0.796875 -0.625 0.859375 -0.65625 C 0.929688 -0.695312 1.046875 -0.71875 1.203125 -0.71875 C 1.546875 -0.71875 1.800781 -0.78125 1.96875 -0.90625 C 2.132812 -1.03125 2.242188 -1.179688 2.296875 -1.359375 C 2.347656 -1.535156 2.378906 -1.78125 2.390625 -2.09375 L 2.390625 -9.21875 C 2.378906 -9.53125 2.347656 -9.773438 2.296875 -9.953125 C 2.242188 -10.128906 2.132812 -10.28125 1.96875 -10.40625 C 1.800781 -10.53125 1.546875 -10.59375 1.203125 -10.59375 L 1.09375 -10.59375 C 0.988281 -10.59375 0.90625 -10.613281 0.84375 -10.65625 C 0.789062 -10.707031 0.757812 -10.816406 0.75 -10.984375 C 0.75 -11.085938 0.773438 -11.175781 0.828125 -11.25 C 0.890625 -11.332031 0.972656 -11.375 1.078125 -11.375 C 1.847656 -11.332031 2.554688 -11.3125 3.203125 -11.3125 C 3.921875 -11.3125 4.671875 -11.332031 5.453125 -11.375 C 5.554688 -11.375 5.632812 -11.332031 5.6875 -11.25 C 5.75 -11.175781 5.78125 -11.085938 5.78125 -10.984375 C 5.769531 -10.796875 5.726562 -10.679688 5.65625 -10.640625 C 5.59375 -10.609375 5.476562 -10.59375 5.3125 -10.59375 C 4.96875 -10.59375 4.707031 -10.53125 4.53125 -10.40625 C 4.363281 -10.28125 4.257812 -10.125 4.21875 -9.9375 C 4.175781 -9.757812 4.148438 -9.519531 4.140625 -9.21875 L 4.140625 -2.09375 C 4.148438 -1.800781 4.175781 -1.5625 4.21875 -1.375 C 4.257812 -1.1875 4.363281 -1.03125 4.53125 -0.90625 C 4.707031 -0.78125 4.96875 -0.71875 5.3125 -0.71875 L 5.421875 -0.71875 C 5.535156 -0.71875 5.617188 -0.695312 5.671875 -0.65625 C 5.734375 -0.613281 5.769531 -0.507812 5.78125 -0.34375 C 5.78125 -0.226562 5.75 -0.132812 5.6875 -0.0625 C 5.632812 0.0078125 5.554688 0.046875 5.453125 0.046875 C 4.691406 0.015625 3.953125 0 3.234375 0 C 2.566406 0 1.847656 0.015625 1.078125 0.046875 Z M 1.078125 0.046875 "/></g></g></g><g fill="#f5faf4" fill-opacity="1"><g transform="translate(207.565262, 133.996229)"><g><path d="M 3.203125 0.046875 C 3.097656 0.046875 3.019531 0.0078125 2.96875 -0.0625 C 2.914062 -0.132812 2.890625 -0.226562 2.890625 -0.34375 C 2.898438 -0.519531 2.929688 -0.625 2.984375 -0.65625 C 3.046875 -0.695312 3.164062 -0.71875 3.34375 -0.71875 C 3.6875 -0.71875 3.941406 -0.78125 4.109375 -0.90625 C 4.273438 -1.03125 4.378906 -1.1875 4.421875 -1.375 C 4.460938 -1.5625 4.488281 -1.800781 4.5 -2.09375 L 4.5 -10.65625 L 3.265625 -10.65625 C 2.859375 -10.644531 2.539062 -10.554688 2.3125 -10.390625 C 2.09375 -10.234375 1.925781 -9.992188 1.8125 -9.671875 C 1.707031 -9.359375 1.613281 -8.910156 1.53125 -8.328125 C 1.507812 -8.222656 1.429688 -8.140625 1.296875 -8.078125 C 1.171875 -8.023438 1.035156 -8 0.890625 -8 C 0.785156 -8 0.6875 -8.03125 0.59375 -8.09375 C 0.507812 -8.164062 0.46875 -8.253906 0.46875 -8.359375 L 0.515625 -10.890625 C 0.515625 -11.171875 0.675781 -11.3125 1 -11.3125 L 9.78125 -11.3125 C 10.09375 -11.3125 10.25 -11.171875 10.25 -10.890625 L 10.3125 -8.359375 C 10.3125 -8.253906 10.265625 -8.164062 10.171875 -8.09375 C 10.078125 -8.03125 9.972656 -8 9.859375 -8 C 9.722656 -8 9.59375 -8.023438 9.46875 -8.078125 C 9.34375 -8.140625 9.269531 -8.222656 9.25 -8.328125 C 9.15625 -8.921875 9.054688 -9.375 8.953125 -9.6875 C 8.847656 -10 8.679688 -10.234375 8.453125 -10.390625 C 8.222656 -10.554688 7.90625 -10.644531 7.5 -10.65625 L 6.28125 -10.65625 L 6.28125 -2.09375 C 6.289062 -1.800781 6.316406 -1.5625 6.359375 -1.375 C 6.398438 -1.1875 6.503906 -1.03125 6.671875 -0.90625 C 6.835938 -0.78125 7.09375 -0.71875 7.4375 -0.71875 L 7.546875 -0.71875 C 7.660156 -0.71875 7.742188 -0.695312 7.796875 -0.65625 C 7.847656 -0.613281 7.878906 -0.507812 7.890625 -0.34375 C 7.890625 -0.226562 7.863281 -0.132812 7.8125 -0.0625 C 7.757812 0.0078125 7.675781 0.046875 7.5625 0.046875 C 6.800781 0.015625 6.097656 0 5.453125 0 C 4.734375 0 3.984375 0.015625 3.203125 0.046875 Z M 3.203125 0.046875 "/></g></g></g><g fill="#f5faf4" fill-opacity="1"><g transform="translate(222.577441, 133.996229)"><g><path d="M 1.078125 0.046875 C 0.984375 0.046875 0.90625 0.0078125 0.84375 -0.0625 C 0.789062 -0.132812 0.765625 -0.226562 0.765625 -0.34375 C 0.785156 -0.519531 0.820312 -0.625 0.875 -0.65625 C 0.9375 -0.695312 1.050781 -0.71875 1.21875 -0.71875 C 1.5625 -0.71875 1.816406 -0.78125 1.984375 -0.90625 C 2.148438 -1.03125 2.253906 -1.1875 2.296875 -1.375 C 2.347656 -1.5625 2.378906 -1.800781 2.390625 -2.09375 L 2.390625 -9.21875 C 2.378906 -9.519531 2.347656 -9.757812 2.296875 -9.9375 C 2.253906 -10.125 2.148438 -10.28125 1.984375 -10.40625 C 1.816406 -10.53125 1.5625 -10.59375 1.21875 -10.59375 L 1.109375 -10.59375 C 0.992188 -10.59375 0.910156 -10.613281 0.859375 -10.65625 C 0.816406 -10.707031 0.785156 -10.816406 0.765625 -10.984375 C 0.765625 -11.085938 0.789062 -11.175781 0.84375 -11.25 C 0.90625 -11.332031 0.984375 -11.375 1.078125 -11.375 C 1.867188 -11.332031 2.578125 -11.3125 3.203125 -11.3125 L 8.84375 -11.3125 C 9.15625 -11.3125 9.3125 -11.171875 9.3125 -10.890625 L 9.359375 -8.375 C 9.359375 -8.269531 9.304688 -8.179688 9.203125 -8.109375 C 9.097656 -8.046875 8.988281 -8.015625 8.875 -8.015625 C 8.726562 -8.015625 8.601562 -8.039062 8.5 -8.09375 C 8.394531 -8.144531 8.335938 -8.226562 8.328125 -8.34375 C 8.222656 -8.925781 8.113281 -9.367188 8 -9.671875 C 7.894531 -9.984375 7.726562 -10.210938 7.5 -10.359375 C 7.28125 -10.503906 6.96875 -10.582031 6.5625 -10.59375 L 4.15625 -10.59375 L 4.15625 -6.046875 L 7.40625 -6.046875 C 7.488281 -6.035156 7.550781 -5.988281 7.59375 -5.90625 C 7.644531 -5.832031 7.671875 -5.738281 7.671875 -5.625 C 7.671875 -5.53125 7.644531 -5.445312 7.59375 -5.375 C 7.550781 -5.3125 7.488281 -5.28125 7.40625 -5.28125 L 4.15625 -5.28125 L 4.15625 -1.890625 C 4.1875 -1.628906 4.21875 -1.425781 4.25 -1.28125 C 4.289062 -1.132812 4.398438 -1 4.578125 -0.875 C 4.753906 -0.757812 5.035156 -0.707031 5.421875 -0.71875 L 7.0625 -0.71875 C 7.476562 -0.726562 7.796875 -0.796875 8.015625 -0.921875 C 8.234375 -1.046875 8.40625 -1.238281 8.53125 -1.5 C 8.65625 -1.769531 8.804688 -2.203125 8.984375 -2.796875 C 9.066406 -3.015625 9.269531 -3.097656 9.59375 -3.046875 C 9.71875 -3.023438 9.820312 -2.976562 9.90625 -2.90625 C 10 -2.832031 10.039062 -2.742188 10.03125 -2.640625 L 9.671875 -0.375 C 9.628906 -0.21875 9.570312 -0.113281 9.5 -0.0625 C 9.4375 -0.0195312 9.316406 0 9.140625 0 L 3.234375 0 C 2.585938 0 1.867188 0.015625 1.078125 0.046875 Z M 1.078125 0.046875 "/></g></g></g><g fill="#f5faf4" fill-opacity="1"><g transform="translate(237.481996, 133.996229)"><g><path d="M 1.078125 0.046875 C 0.984375 0.046875 0.90625 0.0078125 0.84375 -0.0625 C 0.789062 -0.132812 0.765625 -0.226562 0.765625 -0.34375 C 0.785156 -0.519531 0.820312 -0.625 0.875 -0.65625 C 0.9375 -0.695312 1.050781 -0.71875 1.21875 -0.71875 C 1.5625 -0.71875 1.816406 -0.78125 1.984375 -0.90625 C 2.148438 -1.03125 2.253906 -1.1875 2.296875 -1.375 C 2.347656 -1.5625 2.378906 -1.800781 2.390625 -2.09375 L 2.390625 -9.21875 C 2.378906 -9.519531 2.347656 -9.757812 2.296875 -9.9375 C 2.253906 -10.125 2.148438 -10.28125 1.984375 -10.40625 C 1.816406 -10.53125 1.5625 -10.59375 1.21875 -10.59375 L 1.109375 -10.59375 C 0.992188 -10.59375 0.910156 -10.613281 0.859375 -10.65625 C 0.816406 -10.707031 0.785156 -10.816406 0.765625 -10.984375 C 0.765625 -11.085938 0.789062 -11.175781 0.84375 -11.25 C 0.90625 -11.332031 0.984375 -11.375 1.078125 -11.375 C 1.867188 -11.332031 2.578125 -11.3125 3.203125 -11.3125 L 6.015625 -11.3125 C 7.160156 -11.3125 8.203125 -11.082031 9.140625 -10.625 C 10.078125 -10.164062 10.816406 -9.503906 11.359375 -8.640625 C 11.898438 -7.785156 12.171875 -6.769531 12.171875 -5.59375 C 12.171875 -4.375 11.863281 -3.34375 11.25 -2.5 C 10.632812 -1.65625 9.832031 -1.023438 8.84375 -0.609375 C 7.863281 -0.203125 6.8125 0 5.6875 0 L 3.203125 0 C 2.578125 0 1.867188 0.015625 1.078125 0.046875 Z M 5.953125 -0.65625 C 7.347656 -0.65625 8.375 -1.085938 9.03125 -1.953125 C 9.6875 -2.828125 10.015625 -4.039062 10.015625 -5.59375 C 10.015625 -6.570312 9.835938 -7.445312 9.484375 -8.21875 C 9.128906 -8.988281 8.613281 -9.585938 7.9375 -10.015625 C 7.269531 -10.453125 6.476562 -10.671875 5.5625 -10.671875 L 4.15625 -10.65625 L 4.15625 -1.890625 C 4.15625 -1.421875 4.296875 -1.097656 4.578125 -0.921875 C 4.859375 -0.742188 5.316406 -0.65625 5.953125 -0.65625 Z M 5.953125 -0.65625 "/></g></g></g></svg>